<svg width="203" height="187" viewBox="0 0 203 187" fill="none" xmlns="http://www.w3.org/2000/svg">
<path fill-rule="evenodd" clip-rule="evenodd" d="M202.946 67.6547C202.946 93.2616 183.45 107.665 159.152 107.665C134.855 107.665 115.358 94.4255 115.358 68.6731L115.358 67.5092C115.358 42.1932 134.709 27.2074 159.298 27.2074C183.741 27.2074 202.946 41.6113 202.946 66.4907V67.6547ZM149.113 67.5092C149.113 78.4212 152.023 83.5135 159.298 83.5135C166.281 83.5135 169.191 78.4212 169.191 67.9457L169.191 66.7817C169.191 56.4516 166.427 51.5048 159.298 51.5048C152.459 51.5048 149.113 56.0152 149.113 66.3452L149.113 67.5092Z" fill="white"/>
<path d="M110.575 60.9619C110.575 85.6959 93.9891 107.665 56.5971 107.665C19.6417 107.665 1.11433e-06 85.8414 1.33047e-06 54.2692L0 53.1053C1.21835e-06 20.8056 24.734 5.61378e-07 56.5971 0C83.2225 8.6613e-07 106.938 11.9305 108.247 41.0293L69.9826 41.0293C69.4006 34.773 65.6178 30.4082 56.7426 30.4082C46.849 30.4082 40.3018 38.5559 40.3018 53.8327V54.9967C40.3018 67.3637 43.3572 78.4212 58.0521 78.4212C68.5276 78.4212 72.165 73.9109 73.1834 69.9826L58.634 69.9826V46.4126L110.575 46.4125V60.9619Z" fill="white"/>
<path d="M96.9337 150.546V111.699H200.962L200.962 186.92H171.281V150.546H156.732L156.732 180.081L128.651 180.081V150.546H96.9337Z" fill="white"/>
</svg>
